<svg width="192" height="192" viewBox="0 0 192 192" xmlns="http://www.w3.org/2000/svg">
  <circle cx="96" cy="96" r="96" fill="#10b981"/>
  <ellipse cx="52" cy="56" rx="24" ry="30" fill="#1a1a1a"/>
  <ellipse cx="140" cy="56" rx="24" ry="30" fill="#1a1a1a"/>
  <circle cx="96" cy="96" r="68" fill="white"/>
  <ellipse cx="75" cy="90" rx="22" ry="20" fill="#1a1a1a" transform="rotate(-5 75 90)"/>
  <ellipse cx="117" cy="90" rx="22" ry="20" fill="#1a1a1a" transform="rotate(5 117 90)"/>
  <path d="M 64 86 Q 75 82 86 86" stroke="white" stroke-width="4" fill="none" stroke-linecap="round"/>
  <path d="M 106 86 Q 117 82 128 86" stroke="white" stroke-width="4" fill="none" stroke-linecap="round"/>
  <ellipse cx="96" cy="105" rx="7" ry="5" fill="#1a1a1a"/>
  <path d="M 88 112 Q 96 120 104 112" stroke="#1a1a1a" stroke-width="4" fill="#ef4444" stroke-linecap="round"/>
  <ellipse cx="52" cy="109" rx="9" ry="6" fill="#f59e0b" opacity="0.5"/>
  <ellipse cx="140" cy="109" rx="9" ry="6" fill="#f59e0b" opacity="0.5"/>
  <rect x="116" y="75" width="8" height="60" rx="4" fill="#4ade80" transform="rotate(30 120 105)"/>
  <rect x="114" y="71" width="11" height="9" rx="3" fill="#22c55e" transform="rotate(30 120 75)"/>
  <rect x="114" y="86" width="11" height="9" rx="3" fill="#22c55e" transform="rotate(30 120 90)"/>
  <rect x="114" y="101" width="11" height="9" rx="3" fill="#22c55e" transform="rotate(30 120 105)"/>
  <ellipse cx="142" cy="64" rx="13" ry="5" fill="#22c55e" transform="rotate(45 142 64)"/>
  <ellipse cx="150" cy="71" rx="13" ry="5" fill="#22c55e" transform="rotate(-30 150 71)"/>
  <ellipse cx="135" cy="69" rx="11" ry="4" fill="#10b981" transform="rotate(60 135 69)"/>
</svg>
